<svg viewBox="0 0 1024 1024" version="1.1"
    xmlns="http://www.w3.org/2000/svg" data-darkreader-inline-fill="">
    <path d="M431.79 173A20.24 20.24 0 0 1 452 193.21v223.58A20.24 20.24 0 0 1 431.79 437H208.21A20.24 20.24 0 0 1 188 416.79V193.21A20.24 20.24 0 0 1 208.21 173h223.58m0-60H208.21A80.21 80.21 0 0 0 128 193.21v223.58A80.21 80.21 0 0 0 208.21 497h223.58A80.21 80.21 0 0 0 512 416.79V193.21A80.21 80.21 0 0 0 431.79 113z m323.71 33.2a20.12 20.12 0 0 1 14.29 5.92l129.33 129.32a20.22 20.22 0 0 1 0 28.59L769.79 439.35a20.21 20.21 0 0 1-28.58 0L611.88 310a20.22 20.22 0 0 1 0-28.59l129.33-129.29a20.12 20.12 0 0 1 14.29-5.92m0-60a80 80 0 0 0-56.72 23.49L569.46 239a80.21 80.21 0 0 0 0 113.44l129.32 129.34a80.22 80.22 0 0 0 113.44 0l129.32-129.32a80.21 80.21 0 0 0 0-113.44L812.22 109.69A80 80 0 0 0 755.5 86.2zM431.79 587A20.24 20.24 0 0 1 452 607.21v223.58A20.24 20.24 0 0 1 431.79 851H208.21A20.24 20.24 0 0 1 188 830.79V607.21A20.24 20.24 0 0 1 208.21 587h223.58m0-60H208.21A80.21 80.21 0 0 0 128 607.21v223.58A80.21 80.21 0 0 0 208.21 911h223.58A80.21 80.21 0 0 0 512 830.79V607.21A80.21 80.21 0 0 0 431.79 527z m416 60A20.24 20.24 0 0 1 868 607.21v223.58A20.24 20.24 0 0 1 847.79 851H624.21A20.24 20.24 0 0 1 604 830.79V607.21A20.24 20.24 0 0 1 624.21 587h223.58m0-60H624.21A80.21 80.21 0 0 0 544 607.21v223.58A80.21 80.21 0 0 0 624.21 911h223.58A80.21 80.21 0 0 0 928 830.79V607.21A80.21 80.21 0 0 0 847.79 527z" p-id="13070"></path>
</svg>