<svg viewBox="0 0 1024 1024" version="1.1"
    xmlns="http://www.w3.org/2000/svg" data-darkreader-inline-fill="">
    <path d="M914.288 73.136H731.44V36.576C731.44 14.624 716.8 0 694.88 0c-21.968 0-36.592 14.624-36.592 36.576v36.576H365.712V36.576C365.712 14.624 351.088 0 329.136 0c-21.936 0-36.576 14.624-36.576 36.576v36.576H109.712C51.2 73.136 0 124.336 0 182.864v658.288c0 58.496 51.2 109.712 109.712 109.712h804.576C972.8 950.88 1024 899.664 1024 841.152V182.864c0-58.528-51.2-109.728-109.712-109.728zM950.88 841.12c0 21.968-14.656 36.592-36.592 36.592H109.712c-21.936 0-36.576-14.624-36.576-36.592V182.864c0-21.952 14.64-36.576 36.576-36.576h182.864v36.576c0 21.936 14.64 36.576 36.576 36.576 21.952 0 36.576-14.64 36.576-36.576V146.288h292.592v36.576c0 21.936 14.624 36.576 36.56 36.576s36.576-14.64 36.576-36.576V146.288h182.864c21.936 0 36.56 14.624 36.56 36.576V841.12z" p-id="11558"></path>
    <path d="M255.056 512.256c115.04-62.592 186.416-140.528 214.112-233.76 10.176-1.44 37.856 0.752 83.008 6.56 2.912 0 5.088 0.752 6.56 2.176 0 1.472-0.752 3.664-2.192 6.56l-10.928 17.472c46.592 83.024 121.6 139.104 225.024 168.24-14.576 16.048-28.4 41.52-41.52 76.464-99.056-42.24-171.872-102.688-218.48-181.344-58.272 80.128-125.28 144.208-201.008 192.272-14.528-20.4-32.72-38.592-54.576-54.64z m222.864 246.88c39.328-43.696 72.08-88.832 98.304-135.456h-240.32v-59.008h360.496c-40.8 83.024-88.864 159.504-144.208 229.408-32.048-16.032-56.8-27.68-74.272-34.944z m21.84-211.92c-13.104-39.328-24.784-66.992-34.96-83.024l74.288-21.84c4.352 8.736 10.16 22.592 17.472 41.52 8.752 18.944 14.528 32.768 17.472 41.504l-74.272 21.84z" p-id="11559"></path>
</svg>